<svg width="42" height="42" viewBox="0 0 42 42" fill="none" xmlns="http://www.w3.org/2000/svg">
<path d="M21.3964 31.3097L20.9504 30.4146H20.9504L21.3964 31.3097ZM20.6036 31.3097L21.0496 30.4146H21.0496L20.6036 31.3097ZM32.25 15.75C32.25 19.9513 30.0157 23.3367 27.4161 25.853C24.8199 28.366 21.9583 29.9124 20.9504 30.4146L21.8424 32.2047C22.9369 31.6592 26.0021 30.0052 28.8071 27.29C31.6088 24.5781 34.25 20.7075 34.25 15.75H32.25ZM21 4.5C27.2132 4.5 32.25 9.5368 32.25 15.75H34.25C34.25 8.43223 28.3178 2.5 21 2.5V4.5ZM9.75 15.75C9.75 9.5368 14.7868 4.5 21 4.5V2.5C13.6822 2.5 7.75 8.43223 7.75 15.75H9.75ZM21.0496 30.4146C20.0417 29.9124 17.1801 28.366 14.5839 25.853C11.9843 23.3367 9.75 19.9513 9.75 15.75H7.75C7.75 20.7075 10.3912 24.5781 13.1929 27.29C15.9979 30.0052 19.0631 31.6592 20.1576 32.2047L21.0496 30.4146ZM20.9504 30.4146C20.9568 30.4114 20.9746 30.405 21 30.405C21.0254 30.405 21.0432 30.4114 21.0496 30.4146L20.1576 32.2047C20.6934 32.4717 21.3066 32.4717 21.8424 32.2047L20.9504 30.4146ZM25.25 15.75C25.25 18.0972 23.3472 20 21 20V22C24.4518 22 27.25 19.2018 27.25 15.75H25.25ZM21 11.5C23.3472 11.5 25.25 13.4028 25.25 15.75H27.25C27.25 12.2982 24.4518 9.5 21 9.5V11.5ZM16.75 15.75C16.75 13.4028 18.6528 11.5 21 11.5V9.5C17.5482 9.5 14.75 12.2982 14.75 15.75H16.75ZM21 20C18.6528 20 16.75 18.0972 16.75 15.75H14.75C14.75 19.2018 17.5482 22 21 22V20Z" fill="currentColor"/>
<path d="M34.6399 30.625C36.0223 31.4231 36.75 32.3284 36.75 33.25C36.75 34.1716 36.0223 35.0769 34.6399 35.875C33.2576 36.6731 31.2693 37.3358 28.875 37.7966C26.4807 38.2574 23.7647 38.5 21 38.5C18.2353 38.5 15.5193 38.2574 13.125 37.7966C10.7307 37.3359 8.74245 36.6731 7.3601 35.875C5.97775 35.0769 5.25 34.1716 5.25 33.25C5.25 32.3284 5.97775 31.4231 7.3601 30.625" stroke="currentColor" stroke-width="2" stroke-linecap="round"/>
</svg>
