<svg width="517" height="490" viewBox="0 0 517 490" fill="none" xmlns="http://www.w3.org/2000/svg">
<rect width="517" height="490" fill="#252525"/>
<path d="M272.454 421.915L272.199 421.813L271.93 421.931L271.753 422.286L267.723 426.727L267.372 427.03L266.715 427.295L266.234 427.373L264.802 427.358L263.909 427.55L263.151 427.922L262.474 428.567L261.84 429.581L261.095 431.895L261.176 431.976L261.326 432.19L261.417 432.529L261.306 433.004L261.1 433.159L260.528 433.173L260.393 433.203L260.067 434.591L259.947 435.479L259.61 436.049L258.179 436.623L257.012 436.854L256.532 436.821L256.086 436.592L255.163 435.919L254.735 435.772L253.722 436.011L251.926 437.056L250.749 437.148L249.842 436.979L249.582 436.177L249.775 433.836L249.655 432.779L249.429 431.813L249.381 430.797L249.789 429.595L248.445 428.773L243.844 428.348L244.041 427.157L243.906 425.681L243.239 422.635L243.033 421.988L242.485 420.739L242.27 420.051L241.957 417.588L241.765 417.029L241.068 416.51L240.343 416.636L239.618 416.95L238.941 417.006L238.355 416.655L237.443 415.577L236.837 415.081L236.175 414.882L234.743 414.755L234.124 414.322L233.83 413.785L233.364 411.699L232.269 409.445L231.463 407.264L231.443 405.338L232.721 403.856L231.486 403.191L231.284 402.311L231.399 401.207L231.111 399.901L230.424 399.485L228.594 400.656L227.513 400.66L224.06 398.752L222.264 398.113L220.391 398.343H220.492L220.573 398.384L220.636 398.466L220.689 398.589L219.388 399.723L218.716 399.856L217.793 399.102L217.534 398.615L217.212 397.498L217.015 397.104L216.463 396.695L215.372 396.468L214.825 396.222L213.36 394.959L212.653 394.568L209.685 394.006L209.08 393.306L209.382 391.976L206.669 390.201L206.01 390.036L206.011 390.026L206.079 388.825L208.84 383.419L214.699 382.197L217.49 380.085L221.986 377.977L222.485 375.872L222.523 372.159L221.735 362.843L222.158 361.354L223.157 361.158L224.18 360.677L224.271 359.37L223.752 358.088L224.367 356.441L225.726 356.118L232.48 356.18L231.956 353.558L230.463 351.965L228.964 350.805L227.73 349.132L226.827 346.353L227.937 343.372L228.763 338.781L230.007 336.165L233.638 333.823L233.975 331.224L233.351 329.864L233.062 328.193L233.408 327.058L233.989 326.363L235.593 320.706L237.922 319.568L244.488 319.349L246.006 318.637L247.481 317.62L249.114 317.941L250.541 319.39L256.617 322.672L259.628 323.3L263.337 323.277L264.936 321.883L268.062 322.463L270.862 325.037L275.199 331.947L276.77 332.421L281.424 332.167L286.476 334.737L290.454 335.511L291.035 335.829L291.207 336.647L291.217 337.548L290.996 338.128L287.812 338.65L286.063 341.961L287.341 343.48L290.842 344.486L292.447 345.706L293.743 348.591L295.948 351.285L294.084 351.56L290.881 354.259L289.949 356.283L291.577 357.13L294.738 357.604L296.039 358.113L296.351 359.691L296.471 360.995L290.597 364.674L289.127 364.909L286.519 364.697L283.973 365.096L279.857 368.295L278.675 368.563L277.484 368.568L274.91 367.084L273.661 368.947L272.369 371.542L270.351 374.42L267.248 373.975L265.783 375.113L268.252 377.575L270.418 380.576L259.395 392.935L258.377 394.438L257.344 396.556L256.816 398.966L257.753 400.189L258.987 400.315L259.981 401.572L260.082 403.972L261.47 406.461L263.838 407.387L264.779 409.114L265.485 411.318L266.993 412.727L268.732 413.514L271.873 414.07L271.714 415.955L270.922 417.557L270.528 419.051L271.119 420.342L272.214 421.081L272.454 421.915Z" fill="#252525" stroke="white" stroke-width="2" stroke-linejoin="round"/>
<path d="M272.454 421.915L272.213 421.085L271.118 420.346L270.527 419.056L270.921 417.561L271.714 415.96L271.873 414.075L268.732 413.519L266.993 412.732L265.485 411.322L264.778 409.118L263.837 407.392L261.469 406.466L260.081 403.977L259.98 401.576L258.986 400.32L257.752 400.194L256.816 398.971L257.344 396.561L258.376 394.443L259.395 392.939L270.417 380.581L268.252 377.579L265.783 375.118L267.248 373.979L270.351 374.425L272.368 371.547L273.66 368.952L274.909 367.089L277.483 368.573L278.675 368.567L279.856 368.299L283.973 365.1L286.518 364.702L289.126 364.914L290.596 364.679L296.47 360.999L296.351 359.696L296.038 358.117L300.424 358.125L302.249 359.103L303.815 360.748L307.715 361.977L311.293 364.364L313.415 368.562L314.198 371.9L315 373.59L317.109 376.556L317.988 378.412L321.403 380.46L327.507 380.626L328.9 379.141L329.082 378.375L329.654 377.48L331.158 376.757L331.806 376.126L331.941 375.744L331.999 374.974L332.158 374.618L332.35 374.484L332.763 374.461L332.922 374.371L333.901 373.382L334.194 372.138L334.496 371.688L336.278 373.382L337.042 373.026L337.671 372.363L338.285 371.965L339.005 372.438L339.639 372.02L340.907 371.896L341.339 371.648L341.795 371.043L342.185 370.701L342.665 370.521L346.113 370.409L346.819 370.217L347.338 369.778L347.769 369.283L348.206 368.923L350.123 367.998L350.584 367.885L351.271 368.162L351.684 368.702L352.14 369.1L352.961 368.924V368.804L353.773 367.661L354.105 367.415L354.355 367.397L354.523 367.256L354.58 366.645L354.826 366.262L355.363 365.989L355.916 365.491L356.166 364.459L356.598 364.823L356.915 364.842L357.434 364.459L357.492 364.238L357.434 363.884L357.41 363.56L357.593 363.419L358.26 363.476L357.736 369.584L356.319 373.013L354.585 376.004L354.302 380.069L355.551 390.973L355.171 394.166L355.133 396.949L355.551 397.781L355.921 398.763L356.91 399.944L358.241 400.051L359.975 400.986L360.594 403.043L355.983 406.614L355.181 408.391L356.555 409.652L361.554 411.791L364.35 414.804L365.959 419.796L366.117 422.335L365.858 424.817L366.713 430.019L368.379 434.756L368.437 434.959L368.444 434.983L367.596 435.327L366.914 435.124L365.19 435.503L364.422 435.51L359.893 434.229L357.29 432.841L356.646 432.686L355.806 433.268L354.356 435.418L353.558 436.165L352.559 436.331L351.848 435.841L351.186 435.101L350.346 434.523L349.626 434.457L347.738 434.84L347.028 435.179L346.087 436.232L346.654 436.88L347.725 437.531L348.292 438.605L347.912 439.256L347.052 439.429L346.073 439.439L345.343 439.594L344.387 440.524L342.869 442.747L341.865 443.617L340.775 444.01L339.92 443.848L339.166 443.301L338.407 442.511L337.538 441.864L336.808 441.754L336.015 441.802L334.973 441.641L334.238 441.105L330.112 436.173L329.387 436.045L327.63 436.328L326.626 436.178L326.198 436.207L325.723 436.476L324.983 437.392L324.45 437.892L323.35 438.285L322.332 438.035L318.403 436.03L317.677 436.195L317.687 437.42L315.286 437.512L313.384 436.795L312.832 436.806L312.356 437.163L312.183 437.604L312.087 438.259L311.847 439.273L311.515 440.258L311.284 440.574L307.697 440.89L306.99 441.287L305.977 442.496L305.52 442.922L304.497 442.8L304.382 442.69L304.118 443.043L303.229 445.037L302.965 445.881L302.643 446.67L302.067 447.367L301.803 449.845L301.323 451.619L300.416 452.319L298.874 451.564L296.478 449.311L295.185 448.64L293.697 448.806L292.857 449.429L291.95 450.366L291.295 451.041L290.263 451.423L288.121 451.261L286.949 450.833L286.349 450.005V450L286.536 449.07L288.294 446.202L288.5 446.034L288.798 445.949L289.067 445.791L289.177 445.391L289.091 445.083L289.073 445.065L288.721 444.693L288.708 444.667L288.634 444.506L288.629 444.502L287.995 444.032L287.832 443.794L287.833 443.788L287.862 443.492L288.217 442.959L288.29 442.669L288.016 439.23L287.78 438.046L287.348 436.7L287.339 436.692L286.921 436.376L285.364 437.002L284.423 437.097L283.41 436.987L280.739 436.077L280.741 436.056L280.84 435.218L280.811 434.102L280.883 433.716L281.099 433.267L279.24 433.248L278.27 432.987L277.473 432.372L277.233 431.863L276.484 429.593L275.639 425.993L275.077 424.557L273.986 423.834L273.636 423.461L272.853 422.08L272.454 421.915Z" fill="#252525" stroke="white" stroke-width="2" stroke-linejoin="round"/>
<path d="M368.441 434.986L368.435 434.961L368.377 434.759L366.711 430.022L365.856 424.82L366.115 422.338L365.957 419.799L364.348 414.807L361.552 411.793L356.552 409.655L355.179 408.393L355.98 406.616L360.591 403.046L359.972 400.989L358.238 400.054L356.908 399.946L355.918 398.765L355.548 397.784L355.13 396.952L355.169 394.169L355.548 390.976L354.299 380.071L354.583 376.007L356.317 373.016L357.734 369.587L358.258 363.478L358.416 363.422L361.268 360.939L362.143 361.329L363.324 361.071L364.511 360.375L365.395 359.45L364.938 358.291L364.761 357.956L369.203 355.968L372.18 355.198L373.035 354.473L374.462 352.758L375.048 351.623L375.288 350.215L375.615 349.072L377.824 346.453L379.154 344.235L379.952 343.656L381.172 343.457L382.003 343.013L382.714 341.935L383.261 340.623L383.593 339.461L383.972 336.58L383.919 333.866L383.77 332.873L389.908 337.049L393.39 337.223L396.464 335.068L398.294 334.988L400.071 335.666L401.718 336.689L403.202 337.995L402.553 339.853L400.44 343.84L401.299 345.332L412.135 348.086L419.449 352.019L419.877 352.688L419.829 353.679L419.944 354.689L421.044 356.74L421.577 358.514L420.304 359.252L418.864 359.074L417.404 359.56L416.256 361.085L415.478 362.597L415.815 364.404L417.02 366.259L418.653 367.019L425.127 365.737L426.376 366.593L425.646 367.018L424.066 367.412L424.523 368.478L430.881 370.283L441.323 370.622L444.839 369.88L447.846 367.447L451.674 363.112L452.898 362.579L455.55 362.323L458.974 362.702L461.9 364.577L463.408 366.831L468.062 369.552L468.088 369.566L468.056 369.667L467.412 370.605L463.748 374.585L462.403 375.671H462.398L462.393 375.675H462.389L459.858 377.618L457.759 379.245L447.139 390.773L445.742 392.935L444.041 394.268L442.193 396.313L437.155 403.701L435.21 405.699L434.964 406.293L434.585 407.74L434.369 408.251L433.965 408.656L433.144 408.96L432.736 409.23L432.284 409.782L429.422 414.97L428.639 415.762L428.13 415.98L427.131 416.18L426.612 416.628L426.275 417.245L425.473 419.531L421.948 424.272L420.79 427.029L421.683 429.581L421.995 430.624L422.283 433.656L422.456 434.466L422.586 434.859L423.191 435.816L424.195 436.875L424.454 437.419L424.661 438.552L425.29 445.069L425.112 446.1L424.329 448.26L423.671 450.772L422.936 452.307L422.686 453.167L422.969 453.545L423.185 453.402L423.801 452.63L424.531 453.142L424.473 453.171L424.295 453.215L425.803 454.277L427.162 456.066L428.017 456.7L430.102 457.866L430.664 458.583L430.669 459.183L430.246 460.568L430.188 461.529L430.39 462.194L431.144 463.49L431.202 463.64L431.293 463.87L430.752 465L429.811 464.595L428.783 463.668L427.952 463.234L427.438 463.069L426.578 461.864L426.107 461.418L425.603 461.359L424.556 461.677L422.875 461.553L421.881 461.648L420.882 461.527L419.739 460.745L417.995 458.819L417.064 458.53L416.083 459.473L414.474 458.68L410.838 458.522L409.133 457.999L406.78 455.632L405.791 455.241L403.221 455.34L401.04 454.674L400.695 454.377L400.589 453.931L400.719 453.473L400.714 452.975L400.204 452.407L399.82 452.334L398.705 452.469L398.239 452.44L397.701 452.202L396.188 451.227L392.898 450.601L391.582 449.637L391.275 447.378L390.689 444.872L389.353 442.712L387.677 441.132L385.175 439.883L383.47 438.312L382.62 437.827L381.684 438L380.882 438.735L380.224 439.518L379.739 439.842L379.024 439.261L377.463 436.856L376.68 436.054L376.219 435.918L375.498 436.08L375.148 436.032L374.677 435.704L373.813 434.862L373.342 434.545L372.472 434.32L369.144 434.695L368.441 434.986Z" fill="#252525" stroke="white" stroke-width="2" stroke-linejoin="round"/>
<path d="M56.8994 330.768L56.9043 329.402L57.5619 328.317L59.2143 326.478L61.5577 320.901L63.6322 315.64L63.7716 314.794L63.7813 313.375L63.8628 312.648L64.113 312.138L64.4731 311.796L64.7803 311.304L64.8765 310.356L64.9294 308.489L65.3091 306.414L65.9382 304.444L66.7359 302.878L66.5436 302.671L66.3757 302.441L66.6161 300.293L65.939 298.839L64.8871 297.6L64.0274 296.088L63.8979 295.576L63.6958 294.246V294.177L63.4171 291.029L64.2914 290.512L71.7266 286.637L73.067 286.612L75.7999 288.981L77.1541 289.088L79.5024 285.041L81.0489 283.19L84.454 282.005L90.9856 285.606L94.2758 284.79L99.4197 277.999L103.993 269.068L104.991 268.33L106.624 267.79L108.022 266.372L108.704 264.434L109.616 263.179L116.667 264.492L117.906 265.827L118.06 268.417L120.639 271.714L124.318 270.893L127.152 268.413L129.429 264.728L133.488 263.947L135.375 264.45L140.615 267.296L141.436 269.182L141.59 271.614L143.603 275.169L148.108 277.677L150.648 280.48L156.003 282.39L165.604 280.699L167.362 276.705L169.307 276.304L174.768 276.327L179.902 277.734L184.518 280.724L184.057 282.868L183.413 284.704L182.284 285.448L181.665 287.034L181.919 290.252L183 292.975L185.747 293.615L188.595 293.042L190.363 293.533L192.039 294.879L190.728 298.003L191.256 305.599L191.861 309.282L190.319 310.221L188.7 310.622L187.106 310.51L185.593 311.011L184.387 312.316L181.683 318.532L181.193 320.333L180.896 322.245L180.146 324.479L178.672 325.463L176.463 328.323L174.8 332.176L170.929 337.909L167.591 344.267L166.52 348.372L164.849 351.244L162.035 351.704L159.6 353.573L156.248 361.924L156.051 362.79L154.74 362.003L153.678 361.867L152.415 362.634L152.42 363.649L153.909 365.846L154.437 367.175L154.782 368.722L155.238 370.129L156.108 371.025L157.241 371.689L158.086 372.619L158.576 373.919L158.643 375.68L159.249 376.481L159.34 377.436L159.043 378.054L158.48 377.84L157.986 377.099L157.77 376.661L157.491 376.47L156.809 376.459L156.68 376.657L156.689 377.533L156.574 377.799L156.156 377.829L155.296 377.522L154.888 377.536L154.331 377.922L153.557 378.996L153.121 379.385L152.6 379.518L152.035 379.662L151.103 379.599L150.181 379.733L149.139 380.627L148.303 381.889L147.8 382.868L147.233 383.672L146.2 384.419L144.769 386.372L142.882 386.51L140.932 385.498L139.332 384.022L138.516 382.954L138.079 382.049L137.551 379.581L137.047 378.212L135.64 376.744L135.049 375.678L134.377 374.763L133.195 372.613L132.528 371.672L131.495 370.948L129.426 370.191L128.6 369.091L128.48 368.458L128.518 367.797L128.485 367.121L128.158 366.446L127.716 366.306H125.598L125.055 366.483L124.723 366.773L124.382 366.847L123.786 366.367L123.565 365.946L122.965 364.072L121.456 363.806L121.02 362.505L121.385 361.351L122.312 361.561L122.226 361.339L122 360.531L122.283 360.505L122.711 360.234L122.965 360.133L123.681 359.535L124.498 359.049L125.194 358.451L125.555 357.51L126.285 357.273L127.773 357.687L128.571 357.51L129.008 356.896L129.964 355.951L130.362 355.394L130.232 355.435L130.228 355.006L130.29 354.444L130.362 354.075L130.564 353.653L130.694 353.449V353.208L130.516 352.658L131.976 352.059L131.553 350.667L127.596 346.474L126.169 345.666L124.651 345.276L122.965 345.242L122.364 345.371L122.023 346.103L121.686 347.036L121.119 347.75L120.336 347.931L119.63 347.598L118.16 346.473L116.2 346.273L113.318 349.063L111.344 349.425L111.248 349.206L111.214 348.975L111.253 348.741L111.344 348.504L112.011 347.96L112.117 347.091L111.863 346.083L111.459 345.093L110.854 343.944L110.23 343.339L109.462 343.229L106.709 344.265L105.422 344.302L105.124 344.196L102.776 340.2L102.627 339.753L102.526 339.254L101.373 339.144L97.5114 340.078L97.0217 339.924L96.6803 339.59L96.0659 338.648L95.5379 338.296L89.9736 336.347L86.2393 335.038L84.3041 335.201L83.8714 335.739L83.4298 336.519L82.9156 337.061L82.8374 337.037L82.2573 336.853L81.9599 336.247L81.9982 335.55L82.1277 334.815L82.113 334.103L81.5557 332.727L80.8501 332.143L80.0092 331.771L79.0819 331.027L78.5873 330.231L78.0398 329.016L77.6071 327.722L77.4678 326.677L77.7945 325.325L78.1979 324.553L78.2459 323.842L77.5012 322.637L76.2619 322.021L73.6153 321.98L73.1786 320.899L72.9627 319.781L72.42 319.507L71.8195 319.929L71.4015 320.892V320.899L71.2475 321.649L70.7236 321.756L70.0701 321.432L69.5225 320.892L69.129 320.165L66.7758 319.648L65.8925 318.835L65.763 319.442L65.5471 319.781L64.8748 320.273L64.6108 320.33L64.3468 320.455L64.1114 320.649L63.9003 320.9H63.8954L64.0926 321.734L64.8471 322.331L65.5536 323.362L65.6065 325.498L65.4623 325.87L65.006 326.387L64.8765 326.638L64.8333 327.048L64.8618 327.329L64.9148 327.538L64.9726 330.089L64.8765 330.723L59.5696 330.332L57.8886 330.802L56.8994 330.768Z" fill="#252525" stroke="white" stroke-width="2" stroke-linejoin="round"/>
<path d="M156.051 362.789L156.248 361.923L159.6 353.572L162.035 351.703L164.849 351.243L166.52 348.372L167.591 344.266L170.929 337.909L174.8 332.175L176.463 328.322L178.672 325.462L180.146 324.478L180.896 322.244L181.194 320.332L181.683 318.531L184.388 312.315L185.593 311.011L187.106 310.509L188.7 310.621L190.319 310.22L191.861 309.281L193.47 309.19L195.002 309.98L195.621 311.567L195.885 313.37L198.325 315.342L201.284 315.506L206.788 313.485L212.099 310.316L213.142 312.19L214.51 313.286L224.904 315.962L228.19 315.873L228.795 315.341L229.223 314.579L229.775 314.266L231.024 315.793L232.105 317.893L235.591 320.707L233.987 326.364L233.406 327.059L233.061 328.194L233.349 329.865L233.973 331.225L233.637 333.824L230.006 336.166L228.762 338.782L227.935 343.373L226.826 346.354L227.728 349.133L228.963 350.806L230.461 351.966L231.955 353.559L232.478 356.181L225.725 356.119L224.366 356.442L223.75 358.089L224.27 359.371L224.178 360.678L223.156 361.159L222.157 361.355L221.734 362.843L222.522 372.16L222.483 375.872L221.984 377.978L217.489 380.086L214.698 382.198L208.839 383.42L206.077 388.825L206.01 390.027L206.009 390.037L205.236 389.844L205.442 391.477L205.688 391.581L206.058 391.465L206.456 391.477L206.783 391.976L206.864 392.696L206.629 393.013L205.116 393.463L203.252 393.52L202.406 393.74L201.038 394.961L199.347 395.475L197.656 395.117L194.644 392.122L194.121 391.399L193.756 390.538L193.497 389.647L193.18 388.848L192.666 388.233L192.229 387.796L192.085 387.382L192.234 386.986L192.666 386.617L192.686 386.564L192.695 386.508L192.686 386.441L192.666 386.37L192.013 386.233L190.75 385.605L190.139 385.441L189.645 385.556L189.251 385.784L188.78 385.869L188.055 385.541L185.798 382.683L185.702 382.156L186.043 381.427L186.553 381.169L188.796 381.083L190.035 380.598L192.014 379.412L192.955 378.596L193.392 377.5L192.667 376.159L192.177 375.673L192.071 374.943L192.163 374.279L192.667 372.923L192.773 372.694L192.806 372.476L192.783 372.282L192.667 372.117L191.812 370.962L191.553 370.719L190.765 370.426L190.463 370.621L190.343 371.116L190.084 371.709L188.705 373.616L187.908 374.268L186.832 374.549L182.677 373.815L180.463 374.017L179.099 375.673L178.859 375.834L178.614 375.886L178.364 375.83L178.128 375.673L177.696 374.324L176.683 373.504L175.655 373.583L175.151 374.909L174.532 374.441L174.21 373.695L174.118 372.777L174.176 371.833L173.965 371.649L173.773 371.439L173.61 371.195L173.48 370.922L174.335 370.577L173.375 370.168L171.194 370.231L170.089 369.913L168.451 368.877L167.995 368.382L167.716 367.751L167.428 366.812L167.27 366.024L167.371 365.821L166.828 365.655L165.411 365.948L164.773 365.941L164.177 365.625L163.097 364.717L162.587 364.405L157.813 363.067L156.738 363.195L156.051 362.789Z" fill="#252525" stroke="white" stroke-width="2" stroke-linejoin="round"/>
<path d="M453.09 73.9068L453.949 74.6393L454.396 75.336L455.241 76.9534L455.669 77.5677L456.148 77.8953L457.147 78.1699L457.575 78.4241L458.344 79.5616L458.992 81.1448L459.501 82.9154L459.857 84.6029L460.534 88.2899L460.548 90.0727L459.857 91.2835L459.294 91.752L459.044 92.0617L458.819 92.412L458.79 93.2554L458.987 93.9724L459.362 94.5428L459.857 94.9502L460.13 95.3046L460.265 95.6998L460.236 96.1317L460.044 96.5912L460.102 98.898L460.582 100.821L461.197 102.633L461.672 104.611L462.1 108.786L462.59 110.399L463.718 112.061H463.723L463.829 116.87L464.939 122.326L468.882 134.458L471.072 139.018L472.004 141.476L473.863 148.814L474.684 151.02L475.52 152.143L475.976 153.237L476.336 154.363L476.889 155.561L477.72 156.474L478.517 157.094L479.006 158.025L478.901 159.898L478.483 161.012L477.92 161.942L477.474 163.005L477.411 164.511L477.81 165.819L479.217 167.629L479.75 168.77L479.826 169.362L479.715 170.287L479.72 170.778L480.114 172.923L480.133 173.54L479.994 174.015L479.48 175.052L479.35 175.658L479.394 176.483L479.552 176.944L479.74 177.331L479.86 177.919L480.248 187.221L480.344 189.521L479.706 192.792L477.857 195.071L471.685 199.284L463.919 201.499L459.803 203.899L455.706 207.312L450.048 216.022L448.184 218.304L447.33 219.638L445.173 224.045L445.317 224.08L445.659 224.367L445.289 224.626L444.458 224.637L442.997 223.756L442.148 223.544L441.518 223.82L440.817 224.304L440.063 224.538L439.29 224.061L439.429 223.712L439.665 222.921L439.895 222.509L438.589 220.928L437.744 220.432L436.755 220.953L436.318 219.232L435.247 218.193L433.888 217.757L430.257 218.259L423.024 216.76L420.574 216.894L419.441 216.617L418.898 215.724L418.097 216.065L417.156 215.341L416.372 214.228L416.046 213.413L416.324 210.896L416.205 210.534L415.551 210.428L415.162 210.075L414.941 209.433L414.773 208.458L414.816 207.785L415.018 207.183L415.176 206.557L415.061 205.809L414.74 205.356L413.712 204.482L412.747 203.142L410.148 200.373L410.292 198.716L410.143 195.862L409.581 193.163L409.293 189.175L408.567 185.573L405.873 186.332L403.256 187.644L401.805 186.632L400.638 184.992L401.373 180.758L399.125 179.055L396.806 181.563L393.281 182.086L389.967 180.365L388.737 178.118L388.098 175.298L387.421 173.388L386.283 172.215L384.511 171.242L383.324 169.12L383.132 167.161L383.886 165.77L381.753 164.119L379.198 163.75L376.729 162.404L375.02 159.103L372.436 152.599L371.269 143.688L370.524 140.632L369.458 138.113L368.839 135.41L372.22 133.925L378.867 134.316L381.788 133.286L383.152 132.207L384.622 131.581L388.094 131.064L396.115 125.561L400.63 120.454L413.574 112.415L416.245 109.592L417.863 105.016L419.75 101.404L419.918 97.7336L414.985 90.8321L412.627 88.5156L412.132 86.3278L411.878 83.9714L407.185 77.6891L411.556 71.4729L421.925 70.0169L425.009 67.9236L427.66 65.1508L428.832 61.2975L428.711 60.6897L428.774 60.5731L429.932 60.0297L430.921 60.1657L433.707 61.6063L434.211 61.6723L435.268 61.4499L435.744 61.5607L436.238 62.0626L436.502 62.6835L436.709 63.3044L437.001 63.8145L437.525 64.1722L439.12 64.3612L439.412 64.8012L439.244 65.5574L438.975 66.4569L438.971 67.2986L439.807 68.4687L440.873 68.4646L441.983 67.9929L442.919 67.7834L443.764 68.1941L446.646 70.6117L448.418 71.6986L452.165 73.1172L453.09 73.9068Z" fill="#252525" stroke="white" stroke-width="2" stroke-linejoin="round"/>
<path d="M426.66 63.5816L427.534 62.8702L428.711 60.6873L428.831 61.2952L427.66 65.1485L425.008 67.9213L421.925 70.0145L411.556 71.4706L407.185 77.6868L411.877 83.9691L412.132 86.3255L412.626 88.5133L414.984 90.8298L419.917 97.7313L419.749 101.401L417.862 105.014L416.244 109.59L413.574 112.413L400.63 120.452L396.115 125.559L388.094 131.061L384.621 131.579L383.151 132.204L381.787 133.283L378.867 134.313L372.22 133.923L368.838 135.408L363.219 135.846L362.076 136.465L360.745 139.096L358.848 140.44L356.74 140.765L352.609 140.375L349.084 144.572L344.906 145.907L340.464 145.889L337.059 147.85L334.11 148.465L330.781 148.425L329.1 149.791L327.559 151.626L321.061 155.383L319.36 155.89L317.573 155.702L316.137 156.823L315.35 159.432L314.144 160.843L312.742 161.549L309.246 162.191L294.573 159.929L294.164 159.441L293.862 158.758L293.137 158.259L292.339 158.087L290.495 158.662L289.294 161.042L287.954 162.159L286.349 162.565L285.653 155.498L283.256 149.43L280.668 147.612L275.365 146.221L270.394 143.231L266.83 142.052L265.951 142.016L264.86 141.547L264.135 140.503L262.728 137.84L261.575 134.494L257.555 126.649L264.413 113.874L266.061 112.084L268.006 110.856L271.757 111.103L274.384 109.948L274.475 108.675L275.032 107.811L275.763 105.571L276.612 104.713L277.17 103.671V102.355L277.357 101.082L275.032 100.445L270.431 100.823L268.779 100.017L269.682 96.9148L268.472 95.2665L266.084 94.9487L263.841 93.6246L262.285 91.0571L261.439 87.6634L261.319 86.112L262.059 85.0096L264.086 82.9546L264.811 81.6754L265.339 80.2274L264.85 78.2425L263.899 76.5518L262.876 73.5076L263.198 70.8057L264.322 69.5175L268.457 70.0512L269.547 69.9159V70.5067L269.11 70.9206L268.779 71.6303L268.591 72.5902L268.563 73.7586L269.182 73.1434L270.008 70.9801L270.325 70.5067L270.618 70.2068L271.794 68.2863L272.971 67.1855L273.567 66.8074L274.157 66.6591L277.774 64.3703L278.538 64.0542L280.368 63.8032L283.375 61.582L284.004 61.327L284.671 61.2284L285.074 60.8128L285.324 59.9402L285.684 59.1498L286.419 59.0015L286.332 58.643L286.213 57.7744L286.131 57.4199L286.64 57.4696L286.83 57.3702L296.424 57.8811L314.425 58.8451L327.844 59.5597L341.263 60.2734L357.891 61.1542L378.029 62.2282L390.956 62.9126L403.883 63.5971L414.724 64.1764L423.46 64.6408L426.66 63.5816Z" fill="#252525" stroke="white" stroke-width="2" stroke-linejoin="round"/>
<path d="M63.4182 291.029L63.2454 289.069L63.639 288.14L63.1583 287.115L62.2986 286.212L61.5734 285.643L60.5215 285.139L58.3411 284.493L57.2794 283.885V283.877L56.3 283.177L53.2648 282.156L52.2373 281.082L52.0857 280.293L51.9831 279.759L52.3628 278.31L53.2656 276.879L53.8131 275.384L53.7366 273.419L53.2803 271.524L52.6797 270.232L50.4227 268.353L49.3757 267.123L48.8949 265.22L48.7124 263.245L48.0687 262.382L47.2278 261.8L46.4643 260.632L46.325 259.043L46.9353 257.743L49.6006 255.026L50.4553 253.88L51.1707 252.526L51.5643 251.057L51.7272 246.463L51.9774 245.732L52.9812 243.908L53.1784 243.196L53.2648 242.505L53.4139 241.83L53.7692 241.189L54.6239 240.123L51.6026 237.858L51.1365 236.776L51.42 234.817L51.9195 233.443L52.0972 232.363L51.4249 231.31V230.841L52.3326 229.641L52.3473 228.092L51.627 226.762L50.3257 226.192L49.0049 225.885L47.4299 225.075L46.3877 223.902L46.6664 222.523L45.6911 220.317L44.5862 217.005L44.3271 213.987L46.7332 211.864L47.8569 210.077L48.6252 208.291L48.4093 207.479L47.5448 206.687L47.9049 204.918L49.2062 202.181L47.7607 200.99L47.4934 200.69L48.6301 196.608L49.6486 195.08L53.6013 194.447L55.9496 193.459L59.5902 188.329L62.5488 181.854L67.0971 179.339L74.8109 181.9L77.2701 181.553L80.1227 178.239L81.89 174.882L80.6173 174.668L79.6998 173.419L82.3269 173.276L90.2037 170.575L99.781 170.601L102.124 168.887L106.293 163.556L108.733 161.625L111.259 161.27L113.594 161.789L114.818 165.567L113.973 169.23L113.046 173.664L113.2 178.572L108.68 184.379L110.107 185.707L111.106 189.48L110.66 190.683L109.762 191.265L105.362 192.656L104.656 192.573L104.334 193.289L104.286 195.005L104.085 196.627L104.262 200.888L105.905 205.393L106.471 208.054L106.836 210.835L106.832 213.119L105.582 213.115L104.588 213.806L106.563 217.304L107.49 219.56L107.591 224.223L106.083 228.687L105.842 229.779L105.736 230.927L105.204 233.153L105.175 235.701L105.54 238.081L106.63 239.695L107.903 241.014L110.463 242.377L111.294 244.727L112.365 246.686L114.013 248.337L115.746 248.368L116.548 248.021L117.317 248.504L117.388 250.01L116.965 251.457L116.754 254.046L117.441 256.052L119.439 257.421L121.548 258.115L124.948 255.806L127.978 259.15L129.428 264.73L127.152 268.415L124.318 270.895L120.639 271.715L118.061 268.419L117.907 265.828L116.667 264.494L109.617 263.18L108.704 264.436L108.022 266.373L106.625 267.792L104.992 268.331L103.993 269.07L99.4201 278.001L94.276 284.791L90.9858 285.607L84.4543 282.006L81.0492 283.192L79.5026 285.042L77.1544 289.09L75.8001 288.982L73.0672 286.613L71.7269 286.639L64.2917 290.513L63.4182 291.029Z" fill="#252525" stroke="white" stroke-width="2" stroke-linejoin="round"/>
<path d="M47.493 200.689L44.7968 197.655L42.0158 196.552L40.6803 194.723L39.7962 194.31L39.3114 193.842L37.7217 190.702L37.0014 189.857L32.0644 186.213L30.7966 185.534L29.2786 183.739L28.3473 183.327L27.3149 183.252L26.3395 182.946L25.5329 182.311L25 181.233L26.2344 180.159L26.7152 179.229L26.9075 177.776L26.8016 176.815L26.2344 174.087L25.9558 173.313V172.834L28.2039 171.161L31.0329 169.681L33.7707 167.496L35.1974 166L35.8216 164.607L35.9511 163.961L37.3436 159.589L37.2475 158.472L36.9688 157.377L36.801 156.121L36.9305 155.092L37.2622 154.146L37.7234 153.455L38.2131 153.191L38.5536 152.681L39.7636 150.292L39.1582 149.731L38.9757 149.298L38.2652 148.695L37.9816 148.202L37.8374 147.441L37.8089 146.034L37.7372 145.377L37.4235 143.918L36.4506 139.39L35.9658 135.363L34.9905 133.717L34.5056 132.09L33.3771 130.342L33.0406 128.735L33.0072 127.005L33.1318 124.149L33.0455 123.378L32.071 120.341L31.3694 118.81L31.5617 117.592L31.5038 115.391L31.5055 115.383L31.9601 115.332L32.7961 114.969L33.4089 114.398L33.4692 113.761L32.6519 113.19L33.1058 112.919L33.2573 112.65L33.1058 112.382L32.6519 112.118L32.9127 111.534L33.3706 111.942L34.0208 112.267L34.5961 112.701L35.1371 114.212L35.7955 114.719L37.0666 115.331L37.9971 116.335L38.508 116.762L40.5581 117.112L43.0539 118.007L43.92 118.685L44.6273 119.703L46.155 122.636L46.6879 123.329L46.934 123.1L46.987 121.847L47.1988 121.119L47.5924 120.641L48.2312 120.135L48.197 119.84L48.1856 119.531L48.2312 119.072L47.7317 118.925L46.5405 118.817L46.0076 118.537L44.567 115.061L44.8693 113.331L46.0076 109.93L46.5405 110.402L47.0016 110.268L47.5085 109.968L48.2312 109.93L47.902 107.951L48.0723 106.372L48.3942 104.969L48.549 103.492H48.2312L48.1179 104.432L47.7553 105.056L46.6431 106.178L46.934 106.715L46.5258 106.545L46.2007 106.334L45.9399 106.04L45.6906 105.641L45.9285 105.411L46.3482 104.851L46.6431 104.567L46.0043 103.233L44.9002 102.606L39.7457 102.068L39.0197 101.265L39.6056 99.7315L39.454 99.5742L39.4165 99.5522L39.401 99.4879L39.3139 99.1937L38.8559 99.9817L38.4925 100.094L38.099 99.8831L37.5433 99.7323L37.1383 99.892L36.8205 100.282L36.5101 100.788L36.1133 101.3L37.5009 101.569L38.2571 101.914L38.6506 102.42L38.5602 103.373L38.0762 104.067L37.4862 104.339L37.0666 104.029L35.7955 104.831L35.164 105.036L34.4983 105.103V105.64L35.1371 105.889L35.1029 106.052L34.4975 106.177L34.0591 106.11L33.3258 105.726L32.7815 105.64L32.0066 105.119L29.7716 101.883L28.6821 101.383L28.5746 101.396L28.1998 100.168L27.3882 99.1677L27.8299 99.0373L28.2136 98.7733L29.0032 96.6499L29.7707 96.9994L30.2776 97.4223L31.6994 97.9601L36.2982 98.3414L38.1438 97.9601L39.9478 96.9986L43.2836 94.5395L55.5784 89.0672L66.1824 86.2879L79.1127 80.8278L87.4857 78.5887L96.6532 76.11L105.665 72.0213L113.153 71.0851L118.296 69.3601L117.71 69.9549L115.407 70.9889L116.416 71.7059L120.513 70.9889V70.4976H120.195V69.9093H122.411L122.388 69.5214L122.339 69.4505L122.252 69.4766L122.093 69.3601L122.184 68.08L121.114 68.0287L118.584 68.8239L120.183 68.0319L122.108 66.7706L124.982 63.3924L124.399 64.5771L123.36 65.6641L122.955 66.2565L123.378 66.1008L124.222 65.9265L124.959 65.6291L125.606 64.8525L127.236 64.0825L127.833 63.3932L127.28 62.237L126.358 62.2077L125.95 62.7031L125.269 63.3924L127.24 59.9914L132.621 53.0581V53.5486L132.371 54.3276L132.841 54.5256L133.59 54.2396L134.184 53.5478L134.479 52.4763L134.206 52.148L133.605 52.4014L132.913 53.0573L133.867 51.1506L135.482 49.5316L138.654 47.5508L148.362 46.1159L148.674 45.9912L148.677 45.9953L148.768 46.1631L152 52.6874L155.828 58.2314L157.265 61.1622L157.601 64.9699L157.107 67.1022L155.877 68.3709L155.541 69.7846L156.05 70.9351L156.929 72.1574L157.107 74.1333L156.367 75.2683L149.887 76.8694L152.846 85.8674L153.211 90.2194L153.226 94.5558L155.205 95.985L156.324 97.3196L158.081 100.885L159.387 102.049L160.459 103.591L161.338 105.465L158.768 105.12L156.434 106.216L156.487 107.762L157.418 108.204L158.22 109.542L158.739 111.199L157.355 113.652L155.415 115.638L156.227 124.124L154.488 123.573L152.716 123.622L151.058 124.354L149.834 126.484L148.936 129.053L147.749 134.024L146.347 134.295L137.793 134.068L136.746 135.556L136.794 138.656L137.515 141.426L140.43 144.259L143.936 145.153L145.66 146.059L147.111 147.917L147.404 150.142L145.977 151.91L144.882 153.852L143.537 155.128L140.112 156.196L133.383 160.122L129.623 166.026L125.142 170.267L122.29 171.383L119.389 171.775L116.545 170.08L113.975 169.225L114.82 165.562L113.596 161.784L111.261 161.265L108.734 161.62L106.295 163.551L102.126 168.882L99.7829 170.596L90.2056 170.57L82.3288 173.271L79.7018 173.414L80.6193 174.663L81.892 174.877L80.1247 178.234L77.272 181.548L74.8129 181.895L67.099 179.334L62.5508 181.849L59.5922 188.324L55.9516 193.454L53.6033 194.442L49.6506 195.075L48.6321 196.603L47.493 200.689Z" fill="#252525" stroke="white" stroke-width="2" stroke-linejoin="round"/>
<g filter="url(#filter0_d_297_472)">
<path d="M445.66 224.363L446.005 224.653L446.514 225.399L446.664 226.395L446.294 227.741L447.341 228.412L450.683 229.316L451.398 229.036L452.009 229.652L454.895 230.737L455.87 230.84V231.309L455.53 232.007L455.664 232.132L456.331 231.874L456.912 232.132L457.33 232.563L457.772 232.647L458.411 231.874L458.593 232.21L459.054 232.597L459.362 232.955L460.14 232.198L460.317 232.767L460.188 233.671L460 233.936L461.293 236.519L462.196 236.805L464.4 236.737L465.275 237.267L465.582 237.852L465.817 238.467L466.096 238.944L466.533 239.139L467.099 239.535L467.286 240.406L467.335 241.275L467.718 242.213L468.377 245.059L468.91 246.345L468.18 246.888L467.569 247.85L466.69 249.938L466.388 251.321L466.354 253.754L466.052 254.604L466.235 254.678L466.316 254.682L466.349 254.771L466.373 255.117L465.816 255.429L465.623 257.056L465.104 257.678L465.834 259.037L466.689 260.193L466.17 261.936L465.277 262.822L464.302 263.42L463.514 264.33L463.326 264.868L463.139 265.67L462.875 267.395L463.043 267.781L463.355 268.307L463.461 268.773L463.033 268.978L462.851 269.186L463 269.667L463.283 270.183L463.514 270.507L462.918 271.247L462.635 271.42L462.217 271.478V272.036L462.745 272.612L462.807 273.335L462.562 275.351L462.725 276.423L463.128 277.462L464.147 279.216L463.83 279.247L463.513 279.216L464.089 280.381L464.829 280.662L465.463 281.043L465.645 282.041L465.732 282.501L466.044 283.544L466.774 284.05L467.614 284.364L468.272 284.812L467.547 286.3L467.619 286.762L469.511 289.554L469.891 290.445L469.353 290.696L469.021 291.215L468.963 291.978L469.252 292.982L468.402 293.314L467.576 294.19L466.937 295.281L466.687 296.271L466.989 297.847L467.719 298.224L468.617 298.242L469.41 298.759L471.984 304.398L473.031 305.674L475.394 307.17L477.604 309.425L478.123 310.322L477.354 310.721L477.182 311.401L477.868 312.862L479.088 314.753L479.492 315.74L480.039 318.825V319.283L479.842 319.861L480.183 320.162L480.774 320.401L481.341 320.789L481.855 321.573L481.985 322.178L482.033 322.839L482.287 323.805L482.984 324.96L486.125 327.863L489.996 330L490.597 330.918L490.026 332.192L488.613 332.492L487.072 332.504L486.126 332.925L484.896 332.231L483.614 332.401L482.547 333.213L481.976 334.471L482.062 335.874L482.749 336.806L483.849 337.317L485.146 337.476V337.93L484.54 339.214L485.194 340.334L486.462 341.129L487.711 341.435L487.427 343.103L487.792 344.641L488.971 347.482L488.983 347.512L487.908 349.373L488.379 352.843L488.71 353.808L488.951 354.012L488.893 354.174L488.312 355.01L487.433 355.948L484.441 357.514L484.311 358.39L484.383 359.794L484.306 360.739L484.095 361.525L483.077 363.919L480.632 364.933L472.213 365.038L470.608 365.545L469.807 365.954L469.178 366.574L468.668 367.639L468.084 369.568L468.058 369.553L463.404 366.833L461.896 364.579L458.97 362.704L455.546 362.324L452.894 362.58L451.67 363.114L447.842 367.449L444.835 369.882L441.319 370.624L430.877 370.284L424.518 368.479L424.062 367.414L425.642 367.019L426.372 366.595L425.123 365.738L418.649 367.021L417.016 366.261L415.811 364.405L415.474 362.598L416.252 361.087L417.4 359.561L418.864 359.074L420.305 359.252L421.578 358.515L421.045 356.74L419.945 354.689L419.83 353.68L419.878 352.688L419.45 352.019L412.136 348.086L401.3 345.333L400.441 343.84L402.554 339.854L403.203 337.996L401.719 336.689L400.072 335.667L398.294 334.989L396.464 335.069L393.391 337.224L389.909 337.05L383.771 332.874L383.536 331.296L382.354 326.802L382.268 326.116L382.167 325.859L381.951 325.722L381.735 325.53L381.634 325.11L381.687 324.648L381.807 324.433L381.926 324.294L381.979 324.061L382.321 320.881L382.177 319.442L381.317 318.807V318.302L381.649 318.236L382.057 318.042L382.417 317.73L382.614 317.295L382.432 316.301L381.293 313.461L380.928 311.093L380.496 309.769L380.395 309.189L380.466 308.341L380.639 307.699L381.028 306.622L381.873 302.014L382.44 300.832L382.877 300.46L383.386 300.384L383.299 298.829L383.867 296.588L384.15 294.456L382.291 292.235L382.388 290.427L383.478 289.547L384.602 287.988L384.65 284.941L383.219 284.797V284.285L383.924 283.454L383.766 282.534L382.93 281.236L382.828 280.179L382.867 279.331L382.699 278.672L381.979 278.182L381.537 278.14L380.394 278.645L379.577 278.732L377.186 278.225L375.894 277.628L375.207 276.81L374.616 275.815L374.553 275.048L375.033 273.138L376.714 272.691L378.376 273.37L381.762 273.899L385.057 272.737L386.215 271.64L386.527 269.936L384.184 266.336L385.975 263.817L388.535 262.269L386.907 259.782L385.779 256.996L385.592 255.006L384.674 253.042L383.924 250.932L383.632 249.033L386.931 246.577L390.466 245.56L397.194 245.6L403.558 244.333L405.916 244.777L407.544 244.252L411.982 240.93L413.769 240.721L418.874 241.206L421.458 239.106L421.679 237.979L421.976 237.019L422.745 236.203L423.59 235.637L425.491 236.078L430.938 238.878L432.748 238.199L434.285 236.232L435.615 233.128L440.029 226.614L441.518 223.816L442.147 223.54L442.997 223.752L444.457 224.633L445.288 224.621L445.66 224.363Z" fill="white"/>
<path d="M445.66 224.363L446.005 224.653L446.514 225.399L446.664 226.395L446.294 227.741L447.341 228.412L450.683 229.316L451.398 229.036L452.009 229.652L454.895 230.737L455.87 230.84V231.309L455.53 232.007L455.664 232.132L456.331 231.874L456.912 232.132L457.33 232.563L457.772 232.647L458.411 231.874L458.593 232.21L459.054 232.597L459.362 232.955L460.14 232.198L460.317 232.767L460.188 233.671L460 233.936L461.293 236.519L462.196 236.805L464.4 236.737L465.275 237.267L465.582 237.852L465.817 238.467L466.096 238.944L466.533 239.139L467.099 239.535L467.286 240.406L467.335 241.275L467.718 242.213L468.377 245.059L468.91 246.345L468.18 246.888L467.569 247.85L466.69 249.938L466.388 251.321L466.354 253.754L466.052 254.604L466.235 254.678L466.316 254.682L466.349 254.771L466.373 255.117L465.816 255.429L465.623 257.056L465.104 257.678L465.834 259.037L466.689 260.193L466.17 261.936L465.277 262.822L464.302 263.42L463.514 264.33L463.326 264.868L463.139 265.67L462.875 267.395L463.043 267.781L463.355 268.307L463.461 268.773L463.033 268.978L462.851 269.186L463 269.667L463.283 270.183L463.514 270.507L462.918 271.247L462.635 271.42L462.217 271.478V272.036L462.745 272.612L462.807 273.335L462.562 275.351L462.725 276.423L463.128 277.462L464.147 279.216L463.83 279.247L463.513 279.216L464.089 280.381L464.829 280.662L465.463 281.043L465.645 282.041L465.732 282.501L466.044 283.544L466.774 284.05L467.614 284.364L468.272 284.812L467.547 286.3L467.619 286.762L469.511 289.554L469.891 290.445L469.353 290.696L469.021 291.215L468.963 291.978L469.252 292.982L468.402 293.314L467.576 294.19L466.937 295.281L466.687 296.271L466.989 297.847L467.719 298.224L468.617 298.242L469.41 298.759L471.984 304.398L473.031 305.674L475.394 307.17L477.604 309.425L478.123 310.322L477.354 310.721L477.182 311.401L477.868 312.862L479.088 314.753L479.492 315.74L480.039 318.825V319.283L479.842 319.861L480.183 320.162L480.774 320.401L481.341 320.789L481.855 321.573L481.985 322.178L482.033 322.839L482.287 323.805L482.984 324.96L486.125 327.863L489.996 330L490.597 330.918L490.026 332.192L488.613 332.492L487.072 332.504L486.126 332.925L484.896 332.231L483.614 332.401L482.547 333.213L481.976 334.471L482.062 335.874L482.749 336.806L483.849 337.317L485.146 337.476V337.93L484.54 339.214L485.194 340.334L486.462 341.129L487.711 341.435L487.427 343.103L487.792 344.641L488.971 347.482L488.983 347.512L487.908 349.373L488.379 352.843L488.71 353.808L488.951 354.012L488.893 354.174L488.312 355.01L487.433 355.948L484.441 357.514L484.311 358.39L484.383 359.794L484.306 360.739L484.095 361.525L483.077 363.919L480.632 364.933L472.213 365.038L470.608 365.545L469.807 365.954L469.178 366.574L468.668 367.639L468.084 369.568L468.058 369.553L463.404 366.833L461.896 364.579L458.97 362.704L455.546 362.324L452.894 362.58L451.67 363.114L447.842 367.449L444.835 369.882L441.319 370.624L430.877 370.284L424.518 368.479L424.062 367.414L425.642 367.019L426.372 366.595L425.123 365.738L418.649 367.021L417.016 366.261L415.811 364.405L415.474 362.598L416.252 361.087L417.4 359.561L418.864 359.074L420.305 359.252L421.578 358.515L421.045 356.74L419.945 354.689L419.83 353.68L419.878 352.688L419.45 352.019L412.136 348.086L401.3 345.333L400.441 343.84L402.554 339.854L403.203 337.996L401.719 336.689L400.072 335.667L398.294 334.989L396.464 335.069L393.391 337.224L389.909 337.05L383.771 332.874L383.536 331.296L382.354 326.802L382.268 326.116L382.167 325.859L381.951 325.722L381.735 325.53L381.634 325.11L381.687 324.648L381.807 324.433L381.926 324.294L381.979 324.061L382.321 320.881L382.177 319.442L381.317 318.807V318.302L381.649 318.236L382.057 318.042L382.417 317.73L382.614 317.295L382.432 316.301L381.293 313.461L380.928 311.093L380.496 309.769L380.395 309.189L380.466 308.341L380.639 307.699L381.028 306.622L381.873 302.014L382.44 300.832L382.877 300.46L383.386 300.384L383.299 298.829L383.867 296.588L384.15 294.456L382.291 292.235L382.388 290.427L383.478 289.547L384.602 287.988L384.65 284.941L383.219 284.797V284.285L383.924 283.454L383.766 282.534L382.93 281.236L382.828 280.179L382.867 279.331L382.699 278.672L381.979 278.182L381.537 278.14L380.394 278.645L379.577 278.732L377.186 278.225L375.894 277.628L375.207 276.81L374.616 275.815L374.553 275.048L375.033 273.138L376.714 272.691L378.376 273.37L381.762 273.899L385.057 272.737L386.215 271.64L386.527 269.936L384.184 266.336L385.975 263.817L388.535 262.269L386.907 259.782L385.779 256.996L385.592 255.006L384.674 253.042L383.924 250.932L383.632 249.033L386.931 246.577L390.466 245.56L397.194 245.6L403.558 244.333L405.916 244.777L407.544 244.252L411.982 240.93L413.769 240.721L418.874 241.206L421.458 239.106L421.679 237.979L421.976 237.019L422.745 236.203L423.59 235.637L425.491 236.078L430.938 238.878L432.748 238.199L434.285 236.232L435.615 233.128L440.029 226.614L441.518 223.816L442.147 223.54L442.997 223.752L444.457 224.633L445.288 224.621L445.66 224.363Z" stroke="white" stroke-width="2" stroke-linejoin="round"/>
</g>
<path d="M279.921 55.5792L280.907 56.3834L283.207 57.1787L286.83 57.3718L286.64 57.4712L286.131 57.4215L286.213 57.7759L286.332 58.6445L286.419 59.003L285.684 59.1513L285.324 59.9417L285.074 60.8144L284.671 61.2299L284.004 61.3285L283.375 61.5836L280.368 63.8047L278.538 64.0557L277.774 64.3719L274.157 66.6607L273.567 66.809L272.971 67.187L271.794 68.2879L270.618 70.2084L270.325 70.5082L270.008 70.9816L269.182 73.145L268.563 73.7601L268.591 72.5917L268.779 71.6319L269.11 70.9221L269.547 70.5082V69.9175L268.457 70.0527L264.322 69.519L263.198 70.8073L262.876 73.5092L263.899 76.5533L264.85 78.2441L265.34 80.229L264.812 81.6769L264.086 82.9561L262.059 85.0111L261.319 86.1136L261.439 87.665L262.285 91.0587L263.841 93.6261L266.084 94.9502L268.472 95.268L269.682 96.9164L268.779 100.018L270.431 100.825L275.033 100.447L277.357 101.083L277.17 102.357V103.673L276.612 104.714L275.763 105.573L275.033 107.813L274.475 108.677L274.384 109.949L271.757 111.105L268.006 110.858L266.061 112.086L264.413 113.876L257.555 126.651L255.038 127.765L249.741 128.081L247.21 127.075L245.769 126.152L242.71 122.99L241.961 122.504L241.332 121.749L240.414 121.234L236.625 120.698L233.95 121.654L232.216 122.795L228.258 120.436L219.896 119.046L218.378 117.599L217.005 115.839L215.372 115.695L207.5 116.874L201.597 115.726L200.344 116.698L198.452 120.174L195.258 121.362L193.769 122.755L193.51 123.769L193.323 124.887L193.298 126.541L190.403 127.706L183.957 126.024L182.243 126.206L180.947 127.996L179.818 130.47L178.416 135.369L177.115 136.165L175.049 133.691L172.566 132.327L163.105 131.94L160.386 130.281L158.46 126.888L156.227 124.132L155.415 115.646L157.355 113.66L158.739 111.207L158.22 109.55L157.418 108.212L156.487 107.77L156.434 106.224L158.768 105.128L161.338 105.473L160.459 103.599L159.388 102.057L158.081 100.893L156.324 97.3279L155.205 95.9932L153.226 94.564L153.211 90.2276L152.846 85.8756L149.888 76.8776L156.367 75.2765L157.107 74.1415L156.929 72.1656L156.05 70.9433L155.541 69.7928L155.877 68.3791L157.107 67.1104L157.601 64.9781L157.265 61.1704L155.828 58.2396L152 52.6956L148.768 46.1713L148.677 46.0035L148.674 45.9994L152.132 44.6199L154.11 44.2842L155.865 43.6519L160.32 38.7622L174.335 32.185L191.913 28.8557L199.802 26.1448L212.204 25H219.851L220.902 25.3895L222.589 26.8667L223.209 27.191L224.184 27.4167L240.057 36.9126L242.95 40.6705L243.419 41.5505L243.896 42.7956L243.942 43.8833L243.121 44.281L242.917 44.0072L242.69 43.4238L242.407 42.8469L241.559 42.2472L240.992 40.7447L240.228 39.7661L238.016 36.0171L237.584 35.8118L235.955 35.4753L235.543 35.3025L235.1 34.548L233.784 34.0909L231.008 32.1826L228.278 30.8683L227.839 30.2401L226.33 29.0757L225.933 28.8891L225.366 29.1441L225.071 29.5564L224.413 31.8526L224.323 32.3822V33.5556L224.572 33.853L225.684 34.3524L225.933 34.6531L226.493 35.6325L227.174 37.1147L227.147 37.7282L226.969 38.2603L226.985 38.7859L227.522 39.357L227.242 40.9223L227.772 41.5872L228.657 41.4014L229.428 40.4041L229.156 41.7339L229.531 42.7964L230.109 43.6959L231.282 47.3324L231.645 48.1033L231.464 49.9374L231.501 53.0956L231.803 56.0852L232.454 57.4182L233.184 57.6619L234.601 58.7513L235.327 59.0006L235.952 59.065L236.727 59.3053L237.393 59.7396L237.677 60.433L238.46 61.5314L246.296 64.0671L248.028 64.1967L249.477 63.3973L249.874 63.8023L250.418 64.1005L251.696 64.4859L269.127 61.8826L272.973 60.0199L274.8 59.5921L276.274 58.9118L279.134 55.9279L279.921 55.5792Z" fill="#252525" stroke="white" stroke-width="2" stroke-linejoin="round"/>
<path d="M368.838 135.408L369.457 138.112L370.524 140.63L371.269 143.687L372.435 152.598L375.019 159.101L376.729 162.402L379.198 163.748L381.753 164.117L383.885 165.768L383.131 167.159L383.324 169.119L384.51 171.24L386.282 172.213L387.421 173.387L388.098 175.297L388.737 178.117L389.966 180.363L393.28 182.085L396.805 181.562L399.125 179.054L401.373 180.756L400.638 184.991L401.805 186.631L403.255 187.643L405.872 186.33L408.567 185.571L409.292 189.173L409.58 193.161L410.143 195.86L410.292 198.714L410.147 200.371L412.746 203.14L413.712 204.48L414.739 205.354L415.061 205.807L415.176 206.555L415.018 207.181L414.816 207.783L414.772 208.456L414.94 209.432L415.161 210.073L415.551 210.427L416.204 210.533L416.324 210.894L416.045 213.411L416.372 214.226L417.155 215.339L418.096 216.063L418.898 215.722L419.44 216.615L420.574 216.892L423.023 216.758L430.256 218.258L433.887 217.756L435.246 218.191L436.318 219.231L436.754 220.952L437.744 220.43L438.589 220.926L439.895 222.508L439.664 222.919L439.429 223.711L439.289 224.059L440.063 224.537L440.816 224.302L441.518 223.819L440.029 226.616L435.615 233.131L434.285 236.234L432.748 238.202L430.938 238.881L425.491 236.08L423.59 235.639L422.745 236.206L421.976 237.021L421.679 237.981L421.458 239.108L418.874 241.209L413.769 240.724L411.982 240.932L407.544 244.254L405.916 244.78L403.558 244.336L397.194 245.603L390.466 245.562L386.931 246.58L383.632 249.036L383.924 250.934L384.674 253.045L385.591 255.008L385.779 256.998L386.907 259.785L388.535 262.272L385.975 263.82L384.183 266.338L386.527 269.938L386.215 271.643L385.057 272.74L381.762 273.901L378.375 273.373L376.714 272.693L375.033 273.14L374.553 275.05L374.616 275.818L375.207 276.813L375.893 277.63L377.186 278.227L379.577 278.734L380.394 278.648L381.537 278.143L381.979 278.185L382.699 278.675L382.867 279.334L382.828 280.181L382.929 281.238L383.765 282.537L383.924 283.457L383.219 284.288V284.8L384.65 284.944L384.601 287.99L383.478 289.55L382.388 290.429L382.291 292.237L384.15 294.458L383.866 296.59L383.299 298.832L383.386 300.386L382.876 300.463L382.44 300.834L381.873 302.017L381.028 306.624L380.639 307.702L380.466 308.344L380.395 309.191L380.496 309.771L380.928 311.095L381.293 313.464L382.432 316.304L367.567 319.393L359.873 316.986L356.3 316.677L353.12 314.613L352.822 313.49L352.625 312.262L351.232 310.696L350.844 308.213L349.441 307.731L347.981 309.11L346.615 311.008L345.078 311.884L338.623 312.916L332.999 311.75L331.803 310.844L330.819 309.279L329.738 308.045L322.087 303.35L320.709 299.861L318.144 298.938L317.985 296.755L318.576 294.736L321.554 291.951L322.332 289.908L322.337 287.521L321.736 286.841L320.022 286.018L319.671 284.814L319.499 282.441L319.042 280.146L317.659 276.832L318.865 272.635L322.486 272.631L325.272 274.136L328.648 274.603L329.249 273.376L329.368 271.596L328.658 269.692L326.156 267.087L325.724 264.948L325.969 263.998L326.435 263.311L326.848 262.452L326.551 261.221L323.813 257.563L320.446 254.955L317.358 253.53L312.43 254.095L310.759 253.556L310.356 252.341L310.471 250.923L309.366 249.266L308.113 247.833L307.729 246.234L309.28 245.328L309.765 241.555L309.121 240.744L307.306 239.529L304.112 238.242L303.391 238.417L302.724 238.06L301.783 235.957L301.62 233.305L301.034 231.375L299.752 230.484L298.109 229.995L296.649 229.241L295.53 227.292L294.267 225.682L292.538 225.837L291.059 227.352L281.405 229.351L277.106 225.883L274.72 224.762L269.83 223.728L265.348 220.644L265.656 219.346L265.843 218.071L269.277 212.405L269.09 210.996L268.134 210.019L268.38 207.094L269.614 204.574L272.74 195.476L274.733 194.94L274.695 192.409L273.355 189.178L272.577 187.733L272.062 186.131L272.456 184.582L273.383 183.554L273.619 180.722L272.898 177.571L275.17 177.867L277.11 176.232L277.98 174.921L278.964 173.975L279.862 174.349L280.722 174.961L281.606 175.064L282.052 173.753L282.297 172.253L282.432 170.734L282.057 168.464L282.019 166.943L281.74 165.489L284.123 164.368L286.351 162.566L287.955 162.159L289.296 161.042L290.497 158.663L292.341 158.088L293.138 158.26L293.864 158.759L294.166 159.442L294.574 159.929L309.247 162.192L312.744 161.55L314.146 160.843L315.351 159.432L316.139 156.824L317.575 155.703L319.362 155.891L321.062 155.383L327.56 151.627L329.102 149.791L330.783 148.426L334.111 148.466L337.06 147.85L340.465 145.89L344.908 145.908L349.086 144.572L352.611 140.376L356.741 140.766L358.85 140.44L360.747 139.097L362.077 136.466L363.221 135.847L368.838 135.408Z" fill="#252525" stroke="white" stroke-width="2" stroke-linejoin="round"/>
<path d="M265.345 220.645L269.827 223.728L274.716 224.762L277.103 225.884L281.402 229.351L291.056 227.353L292.535 225.838L294.264 225.683L295.527 227.293L296.645 229.241L298.106 229.996L299.748 230.485L301.031 231.376L301.617 233.306L301.78 235.958L302.721 238.061L303.388 238.418L304.108 238.243L307.302 239.529L309.118 240.745L309.762 241.556L309.277 245.328L307.725 246.235L308.11 247.834L309.363 249.266L310.468 250.924L310.352 252.341L310.756 253.556L312.427 254.096L317.355 253.531L320.443 254.955L323.81 257.564L326.548 261.221L326.845 262.453L326.432 263.312L325.966 263.999L325.72 264.949L326.152 267.088L328.655 269.693L329.365 271.597L329.245 273.377L328.645 274.604L325.268 274.137L322.482 272.632L318.861 272.636L317.655 276.833L319.039 280.147L319.495 282.442L319.668 284.815L320.018 286.019L321.733 286.842L322.333 287.522L322.328 289.909L321.55 291.952L318.573 294.737L317.982 296.755L318.14 298.939L316.81 299.931L315.1 304.147L313.559 304.855L312.012 305.097L310.537 305.816L307.31 308.882L305.816 309.308L300.677 308.592L299.227 309.123L298.088 310.619L296.936 315.074L299.058 318.289L300.495 319.439L300.946 321.903L300.576 324.308L299.524 325.553L293.386 321.061L291.739 321.357L291.143 323.731L291.11 326.081L291.297 328.4L290.504 330.604L288.895 331.687L287.55 332.932L286.47 334.742L281.417 332.171L276.763 332.426L275.193 331.951L270.856 325.042L268.056 322.468L264.93 321.888L263.33 323.282L259.622 323.305L256.61 322.677L250.534 319.395L249.108 317.946L247.475 317.624L246 318.641L244.482 319.353L237.916 319.573L235.586 320.711L232.1 317.897L231.019 315.797L229.77 314.27L229.218 314.583L228.79 315.345L228.185 315.877L224.899 315.966L214.506 313.29L213.137 312.194L212.095 310.32L211.801 306.87L211.326 304.84L208.665 302.459L207.796 300.41L207.666 298.013L208.415 296.363L211.815 295.613L212.982 293.765L213.755 291.432L216.075 290.734L218.606 291.981L220.816 290.4L222.112 286.862L222.035 282.9L221.574 278.821L221.805 273.872L223.001 269.318L225.162 264.16L226.363 262.519L229.024 261.263L235.753 261.995L236.281 261.418L238.514 257.481L238.702 255.117L237.827 252.698L237.304 250.055L237.636 247.485L238.275 245.17L239.744 245.042L241.349 245.227L244.461 244.493L246.815 241.72L247.242 236.999L247.727 234.884L252.362 232.904L255.239 230.142L255.114 229.407L254.427 229.207L253.534 227.308L253.458 224.872L253.899 224.288L254.236 223.579L255.048 223.133L260.782 223.015L262.54 222.487L262.968 221.629L263.544 220.771L264.428 220.606L265.345 220.645Z" fill="#252525" stroke="white" stroke-width="2" stroke-linejoin="round"/>
<path d="M286.349 162.567L284.12 164.369L281.738 165.489L282.016 166.944L282.055 168.465L282.429 170.734L282.295 172.254L282.05 173.753L281.603 175.065L280.719 174.962L279.859 174.35L278.961 173.976L277.977 174.922L277.108 176.233L275.168 177.867L272.896 177.572L273.616 180.723L273.381 183.555L272.454 184.583L272.06 186.132L272.574 187.734L273.352 189.179L274.693 192.41L274.731 194.941L272.738 195.476L269.611 204.575L268.377 207.095L268.132 210.02L269.088 210.997L269.275 212.406L265.841 218.072L265.653 219.347L265.346 220.645L264.433 220.606L263.549 220.771L262.973 221.629L262.545 222.487L260.788 223.015L255.053 223.133L254.242 223.579L253.905 224.288L253.463 224.872L249.045 221.491L247.397 221.722L242.527 223.777L240.856 223.908L239.583 221.04L231.894 214.739L230.501 213.092L228.888 212.343L227.995 212.433L227.14 212.798L226.694 213.643L225.992 214.058L224.868 213.705L223.989 212.392L223.418 211.163L223.058 209.767L222.391 209.303L221.497 209.059L218.793 212.236L217.203 212.955L212.496 211.709L210.993 210.292L209.648 208.614L208.077 207.977L206.358 207.857L204.701 207.002L199.946 202.642L196.445 200.746L193.213 200.568L190.249 199.567L189.725 199.263L189.36 198.805L189.158 197.534L188.755 196.509L187.305 195.287L186.488 196.034L184.625 196.654L182.738 196.294L181.81 194.806L181.08 193.007L179.409 191.402L179.721 189.424L180.504 188.827L181.335 188.878L182.085 188.609L182.637 187.56L183.631 182.135L181.355 177.123L177.829 174.483L174.049 173.119L176.138 168.307L176.796 163.505L175.355 160.737L174.952 157.467L179.198 153.881L176.96 148.835L173.012 145.751L172.479 143.429L175.826 139.024L177.114 136.163L178.415 135.367L179.817 130.468L180.946 127.993L182.242 126.203L183.956 126.021L190.402 127.703L193.298 126.538L193.322 124.884L193.509 123.766L193.768 122.752L195.257 121.359L198.451 120.171L200.343 116.696L201.596 115.723L207.499 116.872L215.371 115.693L217.004 115.836L218.378 117.596L219.896 119.043L228.257 120.433L232.215 122.792L233.949 121.652L236.624 120.696L240.413 121.231L241.331 121.746L241.96 122.501L242.709 122.988L245.768 126.149L247.209 127.073L249.74 128.079L255.037 127.763L257.554 126.648L261.574 134.493L262.727 137.839L264.134 140.502L264.859 141.546L265.95 142.015L266.829 142.051L270.393 143.23L275.364 146.22L280.667 147.611L283.256 149.429L285.652 155.497L286.349 162.567Z" fill="#252525" stroke="white" stroke-width="2" stroke-linejoin="round"/>
<path d="M253.463 224.872L253.539 227.309L254.432 229.208L255.119 229.408L255.244 230.143L252.367 232.905L247.732 234.885L247.247 237L246.82 241.721L244.466 244.494L241.354 245.227L239.749 245.042L238.28 245.171L237.641 247.486L237.309 250.056L237.832 252.699L238.706 255.117L238.519 257.481L236.286 261.418L235.758 261.995L229.029 261.264L226.368 262.52L225.167 264.161L223.006 269.319L221.81 273.873L221.579 278.821L222.04 282.901L222.117 286.863L220.82 290.401L218.611 291.982L216.08 290.735L213.76 291.433L212.987 293.766L211.82 295.614L208.42 296.363L207.671 298.013L207.801 300.411L208.67 302.46L211.331 304.841L211.806 306.87L212.1 310.321L206.788 313.49L201.284 315.511L198.325 315.347L195.886 313.374L195.622 311.572L195.002 309.985L193.47 309.194L191.861 309.286L191.256 305.603L190.728 298.007L192.039 294.883L190.363 293.537L188.595 293.046L185.748 293.619L183 292.979L181.92 290.256L181.665 287.038L182.285 285.452L183.413 284.708L184.057 282.872L184.518 280.728L179.902 277.738L174.768 276.331L169.307 276.308L167.362 276.709L165.605 280.703L156.004 282.394L150.649 280.484L148.108 277.681L143.603 275.173L141.59 271.617L141.436 269.186L140.615 267.3L135.375 264.454L133.488 263.951L129.429 264.732L127.979 259.152L124.949 255.808L121.548 258.118L119.439 257.423L117.441 256.055L116.755 254.048L116.966 251.459L117.388 250.012L117.317 248.506L116.548 248.024L115.747 248.37L114.013 248.339L112.365 246.688L111.294 244.729L110.463 242.38L107.903 241.016L106.63 239.697L105.54 238.083L105.175 235.703L105.204 233.156L105.737 230.929L105.843 229.782L106.083 228.689L107.591 224.225L107.49 219.562L106.563 217.307L104.589 213.809L105.583 213.117L106.832 213.121L106.837 210.837L106.472 208.056L105.905 205.395L104.263 200.891L104.085 196.629L104.286 195.008L104.334 193.291L104.656 192.576L105.363 192.659L109.762 191.267L110.66 190.685L111.106 189.483L110.107 185.709L108.681 184.382L113.2 178.575L113.046 173.666L113.974 169.232L116.543 170.088L119.387 171.782L122.288 171.39L125.141 170.274L129.622 166.033L133.382 160.13L140.111 156.203L143.535 155.136L144.881 153.86L145.976 151.917L147.402 150.15L147.109 147.925L145.659 146.067L143.935 145.161L140.428 144.266L137.513 141.433L136.793 138.663L136.745 135.564L137.792 134.075L146.346 134.302L147.748 134.031L148.934 129.06L149.832 126.492L151.057 124.362L152.714 123.629L154.486 123.58L156.225 124.131L158.459 126.887L160.385 130.281L163.103 131.94L172.565 132.326L175.047 133.691L177.113 136.164L175.826 139.026L172.478 143.431L173.011 145.753L176.959 148.837L179.197 153.882L174.951 157.468L175.355 160.739L176.795 163.506L176.138 168.309L174.048 173.12L177.828 174.484L181.354 177.124L183.631 182.137L182.637 187.562L182.084 188.611L181.335 188.88L180.503 188.828L179.72 189.426L179.408 191.404L181.08 193.009L181.81 194.807L182.737 196.296L184.624 196.655L186.487 196.035L187.304 195.289L188.754 196.511L189.158 197.535L189.36 198.806L189.725 199.264L190.249 199.568L193.212 200.57L196.444 200.747L199.946 202.643L204.7 207.004L206.358 207.859L208.077 207.979L209.648 208.616L210.992 210.294L212.496 211.711L217.203 212.957L218.792 212.238L221.497 209.061L222.39 209.305L223.057 209.769L223.417 211.165L223.988 212.394L224.868 213.706L225.991 214.06L226.693 213.645L227.139 212.8L227.994 212.435L228.887 212.345L230.5 213.093L231.893 214.741L239.582 221.042L240.855 223.91L242.526 223.779L247.396 221.724L249.044 221.493L253.463 224.872Z" fill="#252525" stroke="white" stroke-width="2" stroke-linejoin="round"/>
<path d="M318.144 298.938L320.709 299.862L322.087 303.35L329.738 308.046L330.819 309.279L331.803 310.844L332.999 311.751L338.623 312.916L345.078 311.884L346.615 311.008L347.979 309.107L349.439 307.729L350.841 308.21L351.23 310.694L352.622 312.26L352.82 313.488L353.118 314.611L356.297 316.674L359.87 316.983L367.565 319.39L382.429 316.301L382.612 317.295L382.415 317.73L382.054 318.042L381.646 318.236L381.315 318.302V318.807L382.174 319.442L382.318 320.881L381.977 324.061L381.924 324.295L381.804 324.433L381.684 324.648L381.631 325.11L381.733 325.53L381.948 325.722L382.164 325.859L382.265 326.116L382.352 326.802L383.533 331.296L383.769 332.874L383.918 333.867L383.971 336.58L383.591 339.462L383.26 340.623L382.712 341.936L382.001 343.014L381.17 343.458L379.951 343.657L379.153 344.236L377.822 346.453L375.613 349.073L375.287 350.216L375.046 351.623L374.46 352.759L373.034 354.474L372.179 355.199L369.201 355.969L364.759 357.957L364.937 358.292L365.393 359.451L364.509 360.376L363.323 361.072L362.141 361.33L361.267 360.94L358.414 363.423L358.256 363.479L357.589 363.423L357.406 363.564L357.43 363.887L357.488 364.241L357.43 364.463L356.911 364.845L356.594 364.827L356.162 364.463L355.912 365.494L355.359 365.992L354.822 366.266L354.576 366.649L354.519 367.259L354.351 367.4L354.101 367.419L353.769 367.665L352.957 368.807V368.927L352.136 369.103L351.68 368.705L351.267 368.165L350.58 367.889L350.119 368.001L348.202 368.926L347.765 369.286L347.333 369.782L346.814 370.221L346.109 370.412L342.661 370.525L342.181 370.705L341.791 371.046L341.335 371.652L340.903 371.899L339.635 372.023L339.001 372.441L338.281 371.969L337.667 372.366L337.037 373.029L336.274 373.386L334.492 371.692L334.19 372.141L333.897 373.386L332.918 374.375L332.759 374.464L332.346 374.487L332.154 374.622L331.995 374.978L331.937 375.748L331.802 376.13L331.154 376.761L329.65 377.483L329.078 378.378L328.896 379.145L327.503 380.629L321.399 380.463L317.984 378.415L317.105 376.559L314.996 373.593L314.194 371.903L313.411 368.565L311.289 364.367L307.711 361.981L303.811 360.751L302.245 359.107L300.42 358.128L296.034 358.121L294.733 357.612L291.572 357.138L289.944 356.291L290.876 354.268L294.08 351.568L295.943 351.293L293.738 348.599L292.442 345.714L290.837 344.494L287.336 343.488L286.059 341.969L287.807 338.658L290.991 338.136L291.212 337.557L291.203 336.655L291.03 335.837L290.449 335.519L286.472 334.745L287.552 332.936L288.897 331.69L290.506 330.607L291.299 328.404L291.111 326.085L291.145 323.734L291.74 321.36L293.388 321.064L299.526 325.557L300.578 324.312L300.948 321.906L300.496 319.442L299.06 318.293L296.937 315.077L298.09 310.623L299.228 309.126L300.679 308.596L305.818 309.312L307.311 308.886L310.539 305.819L312.014 305.101L313.56 304.858L315.102 304.151L316.811 299.934L318.144 298.938Z" fill="#252525" stroke="white" stroke-width="2" stroke-linejoin="round"/>
<path d="M402.796 292.12V301H400.744V292.12H402.796ZM410.895 294.304V301H408.843V300.088C408.635 300.384 408.351 300.624 407.991 300.808C407.639 300.984 407.247 301.072 406.815 301.072C406.303 301.072 405.851 300.96 405.459 300.736C405.067 300.504 404.763 300.172 404.547 299.74C404.331 299.308 404.223 298.8 404.223 298.216V294.304H406.263V297.94C406.263 298.388 406.379 298.736 406.611 298.984C406.843 299.232 407.155 299.356 407.547 299.356C407.947 299.356 408.263 299.232 408.495 298.984C408.727 298.736 408.843 298.388 408.843 297.94V294.304H410.895ZM414.421 295.252C414.613 294.94 414.889 294.688 415.249 294.496C415.609 294.304 416.021 294.208 416.485 294.208C417.037 294.208 417.537 294.348 417.985 294.628C418.433 294.908 418.785 295.308 419.041 295.828C419.305 296.348 419.437 296.952 419.437 297.64C419.437 298.328 419.305 298.936 419.041 299.464C418.785 299.984 418.433 300.388 417.985 300.676C417.537 300.956 417.037 301.096 416.485 301.096C416.013 301.096 415.601 301.004 415.249 300.82C414.897 300.628 414.621 300.376 414.421 300.064V301H412.369V292.12H414.421V295.252ZM417.349 297.64C417.349 297.128 417.205 296.728 416.917 296.44C416.637 296.144 416.289 295.996 415.873 295.996C415.465 295.996 415.117 296.144 414.829 296.44C414.549 296.736 414.409 297.14 414.409 297.652C414.409 298.164 414.549 298.568 414.829 298.864C415.117 299.16 415.465 299.308 415.873 299.308C416.281 299.308 416.629 299.16 416.917 298.864C417.205 298.56 417.349 298.152 417.349 297.64ZM426.826 297.544C426.826 297.736 426.814 297.936 426.79 298.144H422.146C422.178 298.56 422.31 298.88 422.542 299.104C422.782 299.32 423.074 299.428 423.418 299.428C423.93 299.428 424.286 299.212 424.486 298.78H426.67C426.558 299.22 426.354 299.616 426.058 299.968C425.77 300.32 425.406 300.596 424.966 300.796C424.526 300.996 424.034 301.096 423.49 301.096C422.834 301.096 422.25 300.956 421.738 300.676C421.226 300.396 420.826 299.996 420.538 299.476C420.25 298.956 420.106 298.348 420.106 297.652C420.106 296.956 420.246 296.348 420.526 295.828C420.814 295.308 421.214 294.908 421.726 294.628C422.238 294.348 422.826 294.208 423.49 294.208C424.138 294.208 424.714 294.344 425.218 294.616C425.722 294.888 426.114 295.276 426.394 295.78C426.682 296.284 426.826 296.872 426.826 297.544ZM424.726 297.004C424.726 296.652 424.606 296.372 424.366 296.164C424.126 295.956 423.826 295.852 423.466 295.852C423.122 295.852 422.83 295.952 422.59 296.152C422.358 296.352 422.214 296.636 422.158 297.004H424.726ZM429.96 292.12V301H427.908V292.12H429.96ZM434.171 301.096C433.587 301.096 433.067 300.996 432.611 300.796C432.155 300.596 431.795 300.324 431.531 299.98C431.267 299.628 431.119 299.236 431.087 298.804H433.115C433.139 299.036 433.247 299.224 433.439 299.368C433.631 299.512 433.867 299.584 434.147 299.584C434.403 299.584 434.599 299.536 434.735 299.44C434.879 299.336 434.951 299.204 434.951 299.044C434.951 298.852 434.851 298.712 434.651 298.624C434.451 298.528 434.127 298.424 433.679 298.312C433.199 298.2 432.799 298.084 432.479 297.964C432.159 297.836 431.883 297.64 431.651 297.376C431.419 297.104 431.303 296.74 431.303 296.284C431.303 295.9 431.407 295.552 431.615 295.24C431.831 294.92 432.143 294.668 432.551 294.484C432.967 294.3 433.459 294.208 434.027 294.208C434.867 294.208 435.527 294.416 436.007 294.832C436.495 295.248 436.775 295.8 436.847 296.488H434.951C434.919 296.256 434.815 296.072 434.639 295.936C434.471 295.8 434.247 295.732 433.967 295.732C433.727 295.732 433.543 295.78 433.415 295.876C433.287 295.964 433.223 296.088 433.223 296.248C433.223 296.44 433.323 296.584 433.523 296.68C433.731 296.776 434.051 296.872 434.483 296.968C434.979 297.096 435.383 297.224 435.695 297.352C436.007 297.472 436.279 297.672 436.511 297.952C436.751 298.224 436.875 298.592 436.883 299.056C436.883 299.448 436.771 299.8 436.547 300.112C436.331 300.416 436.015 300.656 435.599 300.832C435.191 301.008 434.715 301.096 434.171 301.096ZM442.231 301L440.191 298.192V301H438.139V292.12H440.191V297.028L442.219 294.304H444.751L441.967 297.664L444.775 301H442.231ZM446.589 293.608C446.229 293.608 445.933 293.504 445.701 293.296C445.477 293.08 445.365 292.816 445.365 292.504C445.365 292.184 445.477 291.92 445.701 291.712C445.933 291.496 446.229 291.388 446.589 291.388C446.941 291.388 447.229 291.496 447.453 291.712C447.685 291.92 447.801 292.184 447.801 292.504C447.801 292.816 447.685 293.08 447.453 293.296C447.229 293.504 446.941 293.608 446.589 293.608ZM447.609 294.304V301H445.557V294.304H447.609ZM455.408 297.544C455.408 297.736 455.396 297.936 455.372 298.144H450.728C450.76 298.56 450.892 298.88 451.124 299.104C451.364 299.32 451.656 299.428 452 299.428C452.512 299.428 452.868 299.212 453.068 298.78H455.252C455.14 299.22 454.936 299.616 454.64 299.968C454.352 300.32 453.988 300.596 453.548 300.796C453.108 300.996 452.616 301.096 452.072 301.096C451.416 301.096 450.832 300.956 450.32 300.676C449.808 300.396 449.408 299.996 449.12 299.476C448.832 298.956 448.688 298.348 448.688 297.652C448.688 296.956 448.828 296.348 449.108 295.828C449.396 295.308 449.796 294.908 450.308 294.628C450.82 294.348 451.408 294.208 452.072 294.208C452.72 294.208 453.296 294.344 453.8 294.616C454.304 294.888 454.696 295.276 454.976 295.78C455.264 296.284 455.408 296.872 455.408 297.544ZM453.308 297.004C453.308 296.652 453.188 296.372 452.948 296.164C452.708 295.956 452.408 295.852 452.048 295.852C451.704 295.852 451.412 295.952 451.172 296.152C450.94 296.352 450.796 296.636 450.74 297.004H453.308Z" fill="#252525"/>
<defs>
<filter id="filter0_d_297_472" x="369.553" y="222.54" width="126.044" height="157.084" filterUnits="userSpaceOnUse" color-interpolation-filters="sRGB">
<feFlood flood-opacity="0" result="BackgroundImageFix"/>
<feColorMatrix in="SourceAlpha" type="matrix" values="0 0 0 0 0 0 0 0 0 0 0 0 0 0 0 0 0 0 127 0" result="hardAlpha"/>
<feOffset dy="4"/>
<feGaussianBlur stdDeviation="2"/>
<feComposite in2="hardAlpha" operator="out"/>
<feColorMatrix type="matrix" values="0 0 0 0 0 0 0 0 0 0 0 0 0 0 0 0 0 0 0.25 0"/>
<feBlend mode="normal" in2="BackgroundImageFix" result="effect1_dropShadow_297_472"/>
<feBlend mode="normal" in="SourceGraphic" in2="effect1_dropShadow_297_472" result="shape"/>
</filter>
</defs>
</svg>
