<svg width="37" height="30" viewBox="0 0 37 30" fill="none" xmlns="http://www.w3.org/2000/svg">
<path fill-rule="evenodd" clip-rule="evenodd" d="M5.87868 6.87868C5 7.75736 5 9.17157 5 12V17.5C5 20.3284 5 21.7426 5.87868 22.6213C6.75736 23.5 8.17157 23.5 11 23.5H26.75C29.5784 23.5 30.9926 23.5 31.8713 22.6213C32.75 21.7426 32.75 20.3284 32.75 17.5V12C32.75 9.17157 32.75 7.75736 31.8713 6.87868C30.9926 6 29.5784 6 26.75 6H11C8.17157 6 6.75736 6 5.87868 6.87868ZM10.1005 10.1203C9.61467 9.85767 9.00791 10.0386 8.74529 10.5245C8.48267 11.0103 8.66363 11.6171 9.14948 11.8797L17.924 16.6227C18.5174 16.9435 19.2326 16.9435 19.826 16.6227L28.6005 11.8797C29.0864 11.6171 29.2673 11.0103 29.0047 10.5245C28.7421 10.0386 28.1353 9.85767 27.6495 10.1203L18.875 14.8633L10.1005 10.1203Z" fill="currentColor"/>
</svg>
