<svg width="14" height="14" viewBox="0 0 14 14" fill="none" xmlns="http://www.w3.org/2000/svg">
<path d="M6.99994 2.71783C4.635 2.71783 2.71783 4.63501 2.71783 6.99995C2.71783 9.36489 4.635 11.2821 6.99994 11.2821C9.36488 11.2821 11.2821 9.36489 11.2821 6.99995C11.2821 4.63501 9.36488 2.71783 6.99994 2.71783ZM6.99994 10.5V3.49996C8.6618 3.49554 10.095 4.66664 10.4218 6.29604C10.526 6.75953 10.526 7.24037 10.4218 7.70386C10.0949 9.33334 8.6618 10.5044 6.99994 10.5Z" fill="white"/>
<path d="M10.4413 3.55869C10.5135 3.63238 10.6119 3.67452 10.7151 3.67602C10.8182 3.67456 10.9166 3.63238 10.9888 3.55869L11.9469 2.60059C12.1197 2.47098 12.1547 2.22588 12.0251 2.05309C11.8955 1.88029 11.6504 1.8453 11.4776 1.97487C11.448 1.9971 11.4216 2.02344 11.3994 2.05309L10.4413 3.01119C10.2901 3.14989 10.28 3.38492 10.4187 3.53609C10.4259 3.54394 10.4335 3.55147 10.4413 3.55869Z" fill="white"/>
<path d="M3.48047 10.4414C3.34143 10.3372 3.15022 10.3372 3.01119 10.4414L2.05308 11.3995C1.90188 11.5382 1.89178 11.7733 2.03052 11.9244C2.0377 11.9323 2.04526 11.9398 2.05308 11.947C2.19178 12.0982 2.42682 12.1083 2.57798 11.9696C2.58584 11.9624 2.59336 11.9548 2.60055 11.947L3.55865 10.9889C3.68826 10.8161 3.65326 10.571 3.48047 10.4414Z" fill="white"/>
<path d="M11.9469 11.3995L10.9888 10.4414C10.816 10.3118 10.5709 10.3468 10.4413 10.5196C10.3371 10.6586 10.3371 10.8498 10.4413 10.9889L11.3994 11.947C11.5381 12.0982 11.7731 12.1083 11.9243 11.9696C11.9322 11.9624 11.9397 11.9548 11.9469 11.947C12.0981 11.8083 12.1082 11.5732 11.9694 11.4221C11.9623 11.4142 11.9548 11.4067 11.9469 11.3995Z" fill="white"/>
<path d="M3.01118 3.55869C3.14988 3.70989 3.38491 3.72 3.53607 3.58126C3.54393 3.57407 3.55145 3.56651 3.55864 3.55869C3.70984 3.41999 3.71995 3.18496 3.58121 3.0338C3.57402 3.02594 3.56646 3.01841 3.55864 3.01123L2.60054 2.05313C2.42774 1.92352 2.18264 1.95855 2.05304 2.13135C1.94877 2.27039 1.94877 2.46159 2.05304 2.60063L3.01118 3.55869Z" fill="white"/>
<path d="M7.00006 2.13129C7.21605 2.13129 7.39113 1.95621 7.39113 1.74023V0.391063C7.39113 0.175078 7.21605 0 7.00006 0C6.78408 0 6.609 0.175078 6.609 0.391063V1.74023C6.609 1.95621 6.78408 2.13129 7.00006 2.13129Z" fill="white"/>
<path d="M7.00006 11.8688C6.78408 11.8688 6.609 12.0439 6.609 12.2598V13.609C6.609 13.825 6.78408 14.0001 7.00006 14.0001C7.21605 14.0001 7.39113 13.825 7.39113 13.609V12.2598C7.39113 12.0439 7.21605 11.8688 7.00006 11.8688Z" fill="white"/>
<path d="M13.609 6.60895H12.2598C12.0439 6.60895 11.8688 6.78402 11.8688 7.00001C11.8688 7.21599 12.0439 7.39107 12.2598 7.39107H13.609C13.825 7.39107 14.0001 7.21599 14.0001 7.00001C14.0001 6.78402 13.825 6.60895 13.609 6.60895Z" fill="white"/>
<path d="M2.13129 7.00001C2.13129 6.78402 1.95621 6.60895 1.74023 6.60895H0.391063C0.175078 6.60895 0 6.78402 0 7.00001C0 7.21599 0.175078 7.39107 0.391063 7.39107H1.74023C1.95621 7.39107 2.13129 7.21599 2.13129 7.00001Z" fill="white"/>
</svg>
